<?xml version="1.0" encoding="UTF-8" standalone="no"?>
<svg
   viewBox="0 0 459.82678 66.44538"
   height="66.445381"
   width="459.82678"
   xml:space="preserve"
   id="svg2"
   version="1.1"
   xmlns="http://www.w3.org/2000/svg"
   xmlns:svg="http://www.w3.org/2000/svg"
   xmlns:rdf="http://www.w3.org/1999/02/22-rdf-syntax-ns#"
   xmlns:cc="http://creativecommons.org/ns#"
   xmlns:dc="http://purl.org/dc/elements/1.1/"><metadata
     id="metadata8"><rdf:RDF><cc:Work
         rdf:about=""><dc:format>image/svg+xml</dc:format><dc:type
           rdf:resource="http://purl.org/dc/dcmitype/StillImage" /></cc:Work></rdf:RDF></metadata><defs
     id="defs6" /><g
     id="g2"
     transform="matrix(0.62853271,0,0,0.62853271,-33.56855,-56.727451)"><g
       id="g1"><g
         id="g3"><path
           id="path90"
           style="fill:#4863a0;fill-opacity:1;fill-rule:evenodd;stroke:none;stroke-width:0.171887"
           d="m 53.850658,132.73668 c -2.036867,15.15014 3.078498,29.61273 12.750609,39.98442 l -3.408523,23.24775 20.542254,-11.37721 c 3.81074,1.56933 7.88103,2.68143 12.15586,3.25554 11.942732,1.60715 23.457462,-1.23243 32.876902,-7.24506 l -11.35661,-17.67001 c -5.37147,3.40681 -11.92382,5.01223 -18.718532,4.09951 -15.33234,-2.06436 -26.083897,-16.16256 -24.022967,-31.4949 0.493321,-3.66636 1.675901,-7.07145 3.399929,-10.10526 L 59.863274,114.94977 c -3.049273,5.33194 -5.142859,11.32566 -6.012616,17.78691" /><path
           id="path92"
           style="fill:#e63946;fill-opacity:1;fill-rule:evenodd;stroke:none;stroke-width:0.171887"
           d="m 77.237657,120.26109 c 2.358283,-3.10256 5.273481,-5.7479 8.585771,-7.79681 L 76.833712,92.767724 c -7.343023,4.042789 -13.658154,9.778666 -18.385059,16.717756 l 18.789004,10.77561" /><path
           id="path94"
           style="fill:#e49b0f;fill-opacity:1;fill-rule:evenodd;stroke:none;stroke-width:0.171887"
           d="m 138.763,106.3812 c -7.49773,-8.290131 -17.85393,-14.077572 -29.80182,-15.684722 -9.486462,-1.2754 -18.703052,0.254388 -26.816152,3.951684 l 8.74907,19.098408 c 4.62204,-2.09531 9.868062,-2.95819 15.267042,-2.23282 6.80157,0.91444 12.70075,4.1992 16.97902,8.90892 L 138.763,106.3812" /><path
           id="path96"
           style="fill:#2ca58d;fill-opacity:1;fill-rule:evenodd;stroke:none;stroke-width:0.171887"
           d="m 128.33975,121.22195 c 4.00326,5.69977 6.15873,12.75231 5.66541,20.24144 -0.59129,8.97252 -4.87129,16.82089 -11.25863,22.17175 l 11.70382,18.21661 c 11.91522,-8.98799 19.99736,-22.90914 21.05791,-38.96858 0.89037,-13.51721 -3.35352,-26.18186 -11.05407,-36.09804 l -16.11444,14.43682" /></g><path
         d="m 204.81686,174.11931 q -7.104,0 -10.944,-3.84 -3.84,-3.84 -3.84,-10.848 v -47.328 h 6.816 v 46.944 q 0,4.416 2.208,6.816 2.304,2.4 6.528,2.4 4.512,0 7.488,-2.592 l 2.4,4.896 q -2.016,1.824 -4.896,2.688 -2.784,0.864 -5.76,0.864 z m -23.808,-45.216 v -5.664 h 31.2 v 5.664 z m 65.5681,45.216 q -7.296,0 -13.152,-3.264 -5.76,-3.36 -9.12,-9.12 -3.36,-5.856 -3.36,-13.344 0,-7.584 3.36,-13.344 3.36,-5.76 9.12,-9.024 5.76,-3.264 13.152,-3.264 7.488,0 13.248,3.264 5.856,3.264 9.12,9.024 3.36,5.76 3.36,13.344 0,7.488 -3.36,13.344 -3.264,5.76 -9.12,9.12 -5.856,3.264 -13.248,3.264 z m 0,-6.048 q 5.472,0 9.696,-2.4 4.224,-2.496 6.624,-6.912 2.496,-4.512 2.496,-10.368 0,-5.952 -2.496,-10.368 -2.4,-4.416 -6.624,-6.816 -4.224,-2.496 -9.6,-2.496 -5.376,0 -9.6,2.496 -4.224,2.4 -6.72,6.816 -2.496,4.416 -2.496,10.368 0,5.856 2.496,10.368 2.496,4.416 6.72,6.912 4.224,2.4 9.504,2.4 z m 39.64808,5.568 v -50.4 h 6.528 v 13.824 l -1.056,-2.592 q 2.4,-5.472 7.68,-8.544 5.28,-3.168 12.576,-3.168 6.144,0 10.752,2.4 4.704,2.304 7.296,7.104 2.688,4.8 2.688,12.096 v 29.28 h -6.816 v -28.608 q 0,-7.968 -4.032,-12 -3.936,-4.128 -11.136,-4.128 -5.376,0 -9.408,2.208 -3.936,2.112 -6.144,6.24 -2.112,4.032 -2.112,9.792 v 26.496 z m 86.30406,0.48 q -7.872,0 -13.824,-3.264 -5.952,-3.36 -9.312,-9.12 -3.36,-5.856 -3.36,-13.344 0,-7.488 3.168,-13.248 3.264,-5.76 8.832,-9.024 5.664,-3.36 12.672,-3.36 7.104,0 12.576,3.264 5.568,3.168 8.736,9.024 3.168,5.76 3.168,13.344 0,0.48 -0.096,1.056 0,0.48 0,1.056 h -43.872 v -5.088 h 40.224 l -2.688,2.016 q 0,-5.472 -2.4,-9.696 -2.304,-4.32 -6.336,-6.72 -4.032,-2.4 -9.312,-2.4 -5.184,0 -9.312,2.4 -4.128,2.4 -6.432,6.72 -2.304,4.32 -2.304,9.888 v 1.056 q 0,5.76 2.496,10.176 2.592,4.32 7.104,6.816 4.608,2.4 10.464,2.4 4.608,0 8.544,-1.632 4.032,-1.632 6.912,-4.992 l 3.84,4.416 q -3.36,4.032 -8.448,6.144 -4.992,2.112 -11.04,2.112 z"
         id="text1"
         style="font-size:96px;font-family:Montserrat;-inkscape-font-specification:Montserrat;fill:#4a484c;fill-opacity:0.811765;stroke-width:1.03069"
         aria-label="tone" /><path
         d="m 401.37941,173.63931 30.72,-67.2 h 7.008 l 30.72,67.2 h -7.488 l -28.224,-63.072 h 2.88 l -28.224,63.072 z m 12.096,-17.952 2.112,-5.76 h 39.072 l 2.112,5.76 z m 66.04809,17.952 v -50.4 h 6.528 v 13.824 l -1.056,-2.592 q 2.4,-5.472 7.68,-8.544 5.28,-3.168 12.576,-3.168 6.144,0 10.752,2.4 4.704,2.304 7.296,7.104 2.688,4.8 2.688,12.096 v 29.28 h -6.816 v -28.608 q 0,-7.968 -4.032,-12 -3.936,-4.128 -11.136,-4.128 -5.376,0 -9.408,2.208 -3.936,2.112 -6.144,6.24 -2.112,4.032 -2.112,9.792 v 26.496 z m 96.48006,0 v -11.136 l -0.288,-1.824 v -18.624 q 0,-6.432 -3.648,-9.888 -3.552,-3.456 -10.656,-3.456 -4.896,0 -9.312,1.632 -4.416,1.632 -7.488,4.32 l -3.072,-5.088 q 3.84,-3.264 9.216,-4.992 5.376,-1.824 11.328,-1.824 9.792,0 15.072,4.896 5.376,4.8 5.376,14.688 v 31.296 z m -17.376,0.48 q -5.664,0 -9.888,-1.824 -4.128,-1.92 -6.336,-5.184 -2.208,-3.36 -2.208,-7.68 0,-3.936 1.824,-7.104 1.92,-3.264 6.144,-5.184 4.32,-2.016 11.52,-2.016 h 17.376 v 5.088 h -17.184 q -7.296,0 -10.176,2.592 -2.784,2.592 -2.784,6.432 0,4.32 3.36,6.912 3.36,2.592 9.408,2.592 5.76,0 9.888,-2.592 4.224,-2.688 6.144,-7.68 l 1.536,4.704 q -1.92,4.992 -6.72,7.968 -4.704,2.976 -11.904,2.976 z m 42.43201,-0.48 v -71.232 h 6.816 v 71.232 z m 25.82394,19.104 q -3.552,0 -6.816,-1.152 -3.168,-1.152 -5.472,-3.456 l 3.168,-5.088 q 1.92,1.824 4.128,2.784 2.304,1.056 5.088,1.056 3.36,0 5.76,-1.92 2.496,-1.824 4.704,-6.528 l 3.264,-7.392 0.768,-1.056 20.736,-46.752 h 6.72 l -25.248,56.448 q -2.112,4.896 -4.704,7.776 -2.496,2.88 -5.472,4.032 -2.976,1.248 -6.624,1.248 z m 13.44,-17.664 -23.232,-51.84 h 7.104 l 20.544,46.272 z m 51.16794,-0.96 q -6.24,0 -11.808,-1.728 -5.568,-1.824 -8.736,-4.512 l 3.072,-5.376 q 3.072,2.304 7.872,4.032 4.8,1.632 10.08,1.632 7.2,0 10.368,-2.208 3.168,-2.304 3.168,-6.048 0,-2.784 -1.824,-4.32 -1.728,-1.632 -4.608,-2.4 -2.88,-0.864 -6.432,-1.44 -3.552,-0.576 -7.104,-1.344 -3.456,-0.768 -6.336,-2.208 -2.88,-1.536 -4.704,-4.128 -1.728,-2.592 -1.728,-6.912 0,-4.128 2.304,-7.392 2.304,-3.264 6.72,-5.088 4.512,-1.92 10.944,-1.92 4.896,0 9.792,1.344 4.896,1.248 8.064,3.36 l -2.976,5.472 q -3.36,-2.304 -7.2,-3.264 -3.84,-1.056 -7.68,-1.056 -6.816,0 -10.08,2.4 -3.168,2.304 -3.168,5.952 0,2.88 1.728,4.512 1.824,1.632 4.704,2.592 2.976,0.864 6.432,1.44 3.552,0.576 7.008,1.44 3.552,0.768 6.432,2.208 2.976,1.344 4.704,3.936 1.824,2.496 1.824,6.624 0,4.416 -2.496,7.68 -2.4,3.168 -7.104,4.992 -4.608,1.728 -11.232,1.728 z m 33.31208,-0.48 v -50.4 h 6.816 v 50.4 z m 3.456,-61.536 q -2.112,0 -3.552,-1.44 -1.44,-1.44 -1.44,-3.456 0,-2.016 1.44,-3.36 1.44,-1.44 3.552,-1.44 2.112,0 3.552,1.344 1.44,1.344 1.44,3.36 0,2.112 -1.44,3.552 -1.344,1.44 -3.552,1.44 z m 35.90391,62.016 q -6.24,0 -11.808,-1.728 -5.568,-1.824 -8.736,-4.512 l 3.072,-5.376 q 3.072,2.304 7.872,4.032 4.8,1.632 10.08,1.632 7.2,0 10.368,-2.208 3.168,-2.304 3.168,-6.048 0,-2.784 -1.824,-4.32 -1.728,-1.632 -4.608,-2.4 -2.88,-0.864 -6.432,-1.44 -3.552,-0.576 -7.104,-1.344 -3.456,-0.768 -6.336,-2.208 -2.88,-1.536 -4.704,-4.128 -1.728,-2.592 -1.728,-6.912 0,-4.128 2.304,-7.392 2.304,-3.264 6.72,-5.088 4.512,-1.92 10.944,-1.92 4.896,0 9.792,1.344 4.896,1.248 8.064,3.36 l -2.976,5.472 q -3.36,-2.304 -7.2,-3.264 -3.84,-1.056 -7.68,-1.056 -6.816,0 -10.08,2.4 -3.168,2.304 -3.168,5.952 0,2.88 1.728,4.512 1.824,1.632 4.704,2.592 2.976,0.864 6.432,1.44 3.552,0.576 7.008,1.44 3.552,0.768 6.432,2.208 2.976,1.344 4.704,3.936 1.824,2.496 1.824,6.624 0,4.416 -2.496,7.68 -2.4,3.168 -7.104,4.992 -4.608,1.728 -11.232,1.728 z"
         id="text1-4"
         style="font-size:96px;font-family:Montserrat;-inkscape-font-specification:Montserrat;fill:#424044;stroke-width:1.03069"
         aria-label="Analysis" /></g></g></svg>
